<?xml version="1.0" encoding="UTF-8" standalone="no"?>
<svg
   width="1030.1981"
   zoomAndPan="magnify"
   viewBox="0 0 772.64859 704.88866"
   height="939.85156"
   preserveAspectRatio="xMidYMid"
   version="1.0"
   id="svg26"
   xmlns="http://www.w3.org/2000/svg"
   xmlns:svg="http://www.w3.org/2000/svg">
  <defs
     id="defs3">
    <clipPath
       id="40200040f8">
      <rect
         x="0"
         width="37"
         y="0"
         height="53"
         id="rect1" />
    </clipPath>
    <clipPath
       id="5fe726000c">
      <rect
         x="0"
         width="18"
         y="0"
         height="28"
         id="rect2" />
    </clipPath>
    <clipPath
       id="06e6a9831b">
      <rect
         x="0"
         width="25"
         y="0"
         height="29"
         id="rect3" />
    </clipPath>
    <clipPath
       clipPathUnits="userSpaceOnUse"
       id="clipPath29">
      <rect
         style="fill:none;stroke-width:0.0386654"
         id="rect30"
         width="45.33334"
         height="41.652466"
         x="693.01465"
         y="383.96124" />
    </clipPath>
  </defs>
  <g
     id="g27"
     transform="matrix(19.319291,0,0,19.475418,-13429.925,-7530.2556)"
     clip-path="url(#clipPath29)">
    <g
       transform="translate(699,381)"
       id="g7">
      <g
         clip-path="url(#40200040f8)"
         id="g6">
        <g
           fill="#9c7a8c"
           fill-opacity="1"
           id="g5">
          <g
             transform="translate(9.272117,31.063502)"
             id="g4">
            <g
               id="g3">
              <path
                 d="m 16.453125,-18.171875 c 0.21875,0.230469 0.382813,0.527344 0.5,0.890625 0.09375,0.292969 0.144531,0.589844 0.15625,0.890625 0.01953,0.679687 -0.132813,1.28125 -0.453125,1.8125 -0.3125,0.53125 -0.726562,0.980469 -1.234375,1.34375 -0.511719,0.367187 -1.054687,0.648437 -1.625,0.84375 0.914063,0.125 1.660156,0.449219 2.234375,0.96875 0.570312,0.511719 0.988281,1.183594 1.25,2.015625 0.175781,0.554688 0.238281,1.167969 0.1875,1.84375 -0.04297,0.679688 -0.21875,1.355469 -0.53125,2.03125 -0.3125,0.679688 -0.789062,1.273438 -1.421875,1.78125 -0.199219,0.1875 -0.507813,0.386719 -0.921875,0.59375 -0.417969,0.199219 -0.867188,0.375 -1.34375,0.53125 -0.08594,0.03125 -0.167969,0.058594 -0.25,0.078125 -0.08594,0.023437 -0.167969,0.042969 -0.25,0.0625 -0.417969,0.105469 -0.945312,0.183594 -1.578125,0.234375 -0.636719,0.042969 -1.21875,0 -1.75,-0.125 -0.574219,-0.144531 -1.136719,-0.375 -1.6875,-0.6875 -0.0625,0.3125 -0.21875,0.730469 -0.46875,1.25 C 7.023438,-1.300781 6.65625,-0.789062 6.15625,-0.28125 5.664062,0.21875 4.992188,0.640625 4.140625,0.984375 4.066406,1.023438 3.988281,1.054688 3.90625,1.078125 3.820312,1.109375 3.742188,1.132812 3.671875,1.15625 2.753906,1.457031 1.953125,1.515625 1.265625,1.328125 c -0.6875,-0.1875 -1.25,-0.527344 -1.6875,-1.015625 -0.4375,-0.488281 -0.753906,-1.035156 -0.953125,-1.640625 -0.03125,-0.070313 -0.046875,-0.132813 -0.046875,-0.1875 -0.00781,-0.0625 -0.019531,-0.125 -0.03125,-0.1875 C -1.671875,-2.554688 -1.6875,-3.394531 -1.5,-4.21875 -1.320312,-5.050781 -1.007812,-5.867188 -0.5625,-6.671875 -0.125,-7.484375 0.394531,-8.269531 1,-9.03125 1.601562,-9.800781 2.238281,-10.539062 2.90625,-11.25 c -0.179688,-1.144531 -0.179688,-2.128906 0,-2.953125 0.1875,-0.832031 0.421875,-1.5 0.703125,-2 0.289063,-0.5 0.515625,-0.84375 0.671875,-1.03125 0.226562,-0.269531 0.484375,-0.5 0.765625,-0.6875 0.289063,-0.1875 0.570313,-0.320313 0.84375,-0.40625 0.195313,-0.0625 0.378906,-0.101563 0.546875,-0.125 0.164062,-0.03125 0.3125,-0.02344 0.4375,0.01563 0.40625,0.07422 0.695312,0.296875 0.875,0.671875 0.039062,0.04297 0.066406,0.08984 0.078125,0.140625 0.1875,0.585938 0.148437,1.199219 -0.109375,1.84375 -0.25,0.636719 -0.664062,1.292969 -1.234375,1.96875 -0.5625,0.679688 -1.195313,1.386719 -1.890625,2.125 0.050781,0.273438 0.113281,0.5625 0.1875,0.875 0.082031,0.304688 0.175781,0.609375 0.28125,0.921875 0.0625,0.1875 0.128906,0.390625 0.203125,0.609375 0.070313,0.210938 0.148437,0.414062 0.234375,0.609375 1.257812,3.085937 2.96875,4.851563 5.125,5.296875 0.5625,0.125 1.0625,0.179688 1.5,0.15625 0.445312,-0.019531 0.84375,-0.085938 1.1875,-0.203125 0.445312,-0.144531 0.832031,-0.351563 1.15625,-0.625 0.550781,-0.457031 0.945312,-0.976563 1.1875,-1.5625 0.238281,-0.582031 0.367188,-1.175781 0.390625,-1.78125 C 16.066406,-7.992188 16,-8.539062 15.84375,-9.03125 15.832031,-9.0625 15.816406,-9.113281 15.796875,-9.1875 15.785156,-9.257812 15.769531,-9.320312 15.75,-9.375 c -0.02344,-0.082031 -0.04687,-0.15625 -0.07813,-0.21875 -0.03125,-0.0625 -0.0625,-0.144531 -0.09375,-0.25 -0.273437,-0.625 -0.589844,-1.078125 -0.953125,-1.359375 -0.367188,-0.289063 -0.734375,-0.472656 -1.109375,-0.546875 -0.367187,-0.07031 -0.695313,-0.08594 -0.984375,-0.04687 -0.292969,0.03125 -0.484375,0.0625 -0.578125,0.09375 -0.480469,0.148437 -0.898437,0.390625 -1.25,0.734375 -0.34375,0.335938 -0.589844,0.710938 -0.734375,1.125 -0.136719,0.40625 -0.140625,0.804688 -0.015625,1.1875 0.050781,0.136719 0.144531,0.3125 0.28125,0.53125 0.132813,0.210938 0.320313,0.375 0.5625,0.5 0.238281,0.125 0.523437,0.136719 0.859375,0.03125 0.15625,-0.050781 0.289062,-0.125 0.40625,-0.21875 0.05078,-0.039062 0.09375,-0.066406 0.125,-0.078125 0.125,-0.039063 0.222656,-0.015625 0.296875,0.078125 0.03125,0.023438 0.05078,0.054688 0.0625,0.09375 0.03906,0.125 0.01953,0.242188 -0.0625,0.34375 -0.167969,0.179688 -0.375,0.308594 -0.625,0.390625 -0.554687,0.148437 -1.023437,0.136719 -1.40625,-0.03125 C 10.078125,-7.179688 9.773438,-7.425781 9.546875,-7.75 9.316406,-8.070312 9.15625,-8.363281 9.0625,-8.625 L 9.03125,-8.765625 c -0.136719,-0.550781 -0.117188,-1.113281 0.0625,-1.6875 0.175781,-0.582031 0.429688,-1.035156 0.765625,-1.359375 0.4375,-0.476562 0.890625,-0.835938 1.359375,-1.078125 0.46875,-0.25 0.921875,-0.441406 1.359375,-0.578125 0.4375,-0.144531 0.863281,-0.296875 1.28125,-0.453125 0.425781,-0.15625 0.820313,-0.367187 1.1875,-0.640625 0.539063,-0.40625 0.910156,-0.875 1.109375,-1.40625 0.195312,-0.539062 0.234375,-1.003906 0.109375,-1.390625 -0.05469,-0.144531 -0.121094,-0.257813 -0.203125,-0.34375 l -0.15625,-0.15625 c -0.07422,-0.03906 -0.15625,-0.08203 -0.25,-0.125 -0.08594,-0.03906 -0.195312,-0.05078 -0.328125,-0.03125 -0.179687,0.02344 -0.296875,-0.06641 -0.359375,-0.265625 -0.02344,-0.15625 0.05469,-0.257812 0.234375,-0.3125 0.445313,-0.09375 0.863281,0.04687 1.25,0.421875 z m -11.171875,1.1875 c -0.125,0.136719 -0.277344,0.386719 -0.453125,0.75 -0.167969,0.355469 -0.296875,0.8125 -0.390625,1.375 -0.09375,0.5625 -0.105469,1.246094 -0.03125,2.046875 0.550781,-0.550781 1.054688,-1.09375 1.515625,-1.625 0.46875,-0.539062 0.832031,-1.050781 1.09375,-1.53125 0.269531,-0.488281 0.359375,-0.925781 0.265625,-1.3125 -0.011719,-0.03125 -0.023438,-0.04687 -0.03125,-0.04687 0,0 -0.00781,-0.0078 -0.015625,-0.03125 -0.085937,-0.289063 -0.242187,-0.453125 -0.46875,-0.484375 -0.179687,-0.03906 -0.335937,-0.03516 -0.46875,0.01563 -0.167969,0.05469 -0.339844,0.152344 -0.515625,0.296875 -0.167969,0.148438 -0.335938,0.328125 -0.5,0.546875 z M 3.046875,0.171875 C 3.253906,0.160156 3.457031,0.140625 3.65625,0.109375 3.851562,0.0859375 4.035156,0.0507812 4.203125,0 4.816406,-0.195312 5.320312,-0.519531 5.71875,-0.96875 6.113281,-1.414062 6.425781,-1.875 6.65625,-2.34375 6.894531,-2.820312 7.0625,-3.191406 7.15625,-3.453125 5.613281,-4.671875 4.46875,-6.28125 3.71875,-8.28125 L 3.328125,-9.3125 C 3.285156,-9.445312 3.25,-9.578125 3.21875,-9.703125 3.1875,-9.835938 3.148438,-9.96875 3.109375,-10.09375 c -1.011719,1.230469 -1.8125,2.496094 -2.40625,3.796875 -0.585937,1.304687 -0.7539062,2.601563 -0.515625,3.890625 0.019531,0.074219 0.039062,0.152344 0.0625,0.234375 0.019531,0.074219 0.046875,0.152344 0.078125,0.234375 0.101563,0.324219 0.257813,0.640625 0.46875,0.953125 0.207031,0.3125 0.492187,0.585937 0.859375,0.8125 0.375,0.21875 0.835938,0.332031 1.390625,0.34375 z m 0,0"
                 id="path3" />
            </g>
          </g>
        </g>
      </g>
    </g>
    <g
       transform="translate(720,402)"
       id="g15">
      <g
         clip-path="url(#5fe726000c)"
         id="g14">
        <g
           fill="#9c7a8c"
           fill-opacity="1"
           id="g10">
          <g
             transform="translate(0.196728,20.848142)"
             id="g9">
            <g
               id="g8">
              <path
                 d="m 14.90625,-0.265625 c 0.03125,0 0.04687,0.046875 0.04687,0.140625 0,0.0859375 -0.01563,0.125 -0.04687,0.125 h -2.8125 c -0.367188,0 -1.054688,-0.601562 -2.0625,-1.8125 -1,-1.207031 -2.1875,-2.863281 -3.5625,-4.96875 -0.398438,0.085938 -0.808594,0.125 -1.234375,0.125 -0.085937,0 -0.414063,-0.019531 -0.984375,-0.0625 v 4.953125 c 0,0.449219 0.039062,0.777344 0.125,0.984375 0.09375,0.199219 0.265625,0.335938 0.515625,0.40625 0.257813,0.074219 0.664063,0.109375 1.21875,0.109375 0.039063,0 0.0625,0.046875 0.0625,0.140625 0,0.0859375 -0.023437,0.125 -0.0625,0.125 -0.449219,0 -0.804687,-0.00390625 -1.0625,-0.015625 L 3.53125,-0.046875 2.046875,-0.015625 C 1.785156,-0.00390625 1.414062,0 0.9375,0 0.90625,0 0.890625,-0.0390625 0.890625,-0.125 c 0,-0.09375 0.015625,-0.140625 0.046875,-0.140625 0.550781,0 0.957031,-0.035156 1.21875,-0.109375 0.257812,-0.070312 0.4375,-0.210938 0.53125,-0.421875 0.101562,-0.207031 0.15625,-0.53125 0.15625,-0.96875 V -11.875 c 0,-0.4375 -0.046875,-0.753906 -0.140625,-0.953125 C 2.617188,-13.035156 2.445312,-13.175781 2.1875,-13.25 c -0.25,-0.08203 -0.652344,-0.125 -1.203125,-0.125 -0.042969,0 -0.0625,-0.03906 -0.0625,-0.125 0,-0.09375 0.019531,-0.140625 0.0625,-0.140625 l 1.0625,0.01563 c 0.613281,0.03125 1.109375,0.04687 1.484375,0.04687 0.320312,0 0.617188,-0.0039 0.890625,-0.01563 0.28125,-0.01953 0.515625,-0.03516 0.703125,-0.04687 0.539062,-0.03906 1.03125,-0.0625 1.46875,-0.0625 1.144531,0 2.03125,0.261719 2.65625,0.78125 0.625,0.523437 0.9375,1.21875 0.9375,2.09375 0,0.792969 -0.230469,1.507813 -0.6875,2.140625 -0.460938,0.625 -1.0625,1.121094 -1.8125,1.484375 1.21875,1.761719 2.242188,3.140625 3.078125,4.140625 0.84375,0.992188 1.585937,1.703125 2.234375,2.140625 0.644531,0.4375 1.28125,0.65625 1.90625,0.65625 z M 4.25,-7.25 c 0.363281,0.0625 0.796875,0.09375 1.296875,0.09375 1.132813,0 1.941406,-0.242188 2.421875,-0.734375 0.488281,-0.5 0.734375,-1.265625 0.734375,-2.296875 0,-1.132812 -0.25,-1.945312 -0.75,-2.4375 -0.5,-0.5 -1.230469,-0.75 -2.1875,-0.75 -0.574219,0 -0.96875,0.105469 -1.1875,0.3125 C 4.359375,-12.863281 4.25,-12.453125 4.25,-11.828125 Z m 0,0"
                 id="path7" />
            </g>
          </g>
        </g>
        <g
           fill="#9c7a8c"
           fill-opacity="1"
           id="g13">
          <g
             transform="translate(13.799613,20.848142)"
             id="g12">
            <g
               id="g11" />
          </g>
        </g>
      </g>
    </g>
    <g
       transform="translate(694,379)"
       id="g26">
      <g
         clip-path="url(#06e6a9831b)"
         id="g25">
        <g
           fill="#9c7a8c"
           fill-opacity="1"
           id="g18">
          <g
             transform="translate(1.249971,22.232503)"
             id="g17">
            <g
               id="g16">
              <path
                 d="m 16,-0.28125 c 0.0625,0 0.09375,0.046875 0.09375,0.140625 C 16.09375,-0.046875 16.0625,0 16,0 15.707031,0 15.257812,-0.015625 14.65625,-0.046875 14.039062,-0.078125 13.597656,-0.09375 13.328125,-0.09375 c -0.34375,0 -0.773437,0.015625 -1.28125,0.046875 C 11.554688,-0.015625 11.179688,0 10.921875,0 c -0.0625,0 -0.09375,-0.046875 -0.09375,-0.140625 0,-0.09375 0.03125,-0.140625 0.09375,-0.140625 0.5625,0 0.972656,-0.050781 1.234375,-0.15625 0.257812,-0.101562 0.390625,-0.285156 0.390625,-0.546875 0,-0.21875 -0.101563,-0.546875 -0.296875,-0.984375 l -2.046875,-4.328125 h -5.4375 L 3.3125,-2.90625 C 3.101562,-2.382812 3,-1.960938 3,-1.640625 c 0,0.46875 0.1875,0.8125 0.5625,1.03125 0.375,0.21875 0.929688,0.328125 1.671875,0.328125 0.082031,0 0.125,0.046875 0.125,0.140625 C 5.359375,-0.046875 5.316406,0 5.234375,0 4.960938,0 4.566406,-0.015625 4.046875,-0.046875 c -0.574219,-0.03125 -1.074219,-0.046875 -1.5,-0.046875 -0.398437,0 -0.855469,0.015625 -1.375,0.046875 C 0.710938,-0.015625 0.328125,0 0.015625,0 -0.0546875,0 -0.09375,-0.046875 -0.09375,-0.140625 c 0,-0.09375 0.0390625,-0.140625 0.109375,-0.140625 0.425781,0 0.789063,-0.078125 1.09375,-0.234375 0.300781,-0.15625 0.582031,-0.4375 0.84375,-0.84375 0.269531,-0.40625 0.566406,-0.988281 0.890625,-1.75 l 4.828125,-11.40625 c 0.03125,-0.03906 0.082031,-0.0625 0.15625,-0.0625 0.070313,0 0.117187,0.02344 0.140625,0.0625 l 5.40625,11.375 c 0.507812,1.136719 0.945312,1.898437 1.3125,2.28125 C 15.0625,-0.472656 15.5,-0.28125 16,-0.28125 Z M 4.9375,-6.75 H 10 l -2.671875,-5.65625 z m 0,0"
                 id="path15" />
            </g>
          </g>
        </g>
        <g
           fill="#9c7a8c"
           fill-opacity="1"
           id="g21">
          <g
             transform="translate(16.173496,22.232503)"
             id="g20">
            <g
               id="g19" />
          </g>
        </g>
        <g
           fill="#9c7a8c"
           fill-opacity="1"
           id="g24">
          <g
             transform="translate(20.38489,22.232503)"
             id="g23">
            <g
               id="g22" />
          </g>
        </g>
      </g>
    </g>
  </g>
</svg>
